<svg width="1302" height="781" viewBox="0 0 1302 781" fill="none" xmlns="http://www.w3.org/2000/svg">
<path d="M776.148 323.438C778.58 314.961 779.962 306.218 780.263 297.405C780.263 289.048 777.659 280.692 774.378 270.148C765.636 244.257 761.305 217.082 761.566 189.757C761.566 167.368 757.243 152.009 748.858 143.938C746.59 141.784 743.889 140.138 740.934 139.11C737.98 138.082 734.84 137.696 731.724 137.977H730.969C705.059 137.977 688.81 144.095 673.056 149.9C659.359 154.951 646.391 159.741 628.528 159.741C620.273 159.741 615.143 158.491 612.904 155.914C612.305 155.202 611.881 154.362 611.664 153.458C611.447 152.554 611.444 151.612 611.654 150.707V150.082C612.077 147.251 612.651 144.444 613.372 141.674C617.565 122.643 628.736 72.0343 622.773 56.0238C614.779 34.4682 590.665 33.4009 577.073 34.7025C557.569 37.7224 541.684 59.7206 536.919 67.0359C540.07 67.0359 544.731 67.4264 546.398 69.3789C546.69 69.6681 546.921 70.0129 547.078 70.393C547.234 70.7731 547.313 71.1807 547.309 71.5918C547.348 71.7719 547.348 71.9584 547.309 72.1385C547.268 72.7278 547.268 73.3194 547.309 73.9087C547.583 78.0801 548.272 82.2137 549.366 86.2485L549.965 88.5915C550.59 91.6635 556.814 105.435 559.261 106.45C560.72 107.049 564.808 104.368 567.881 101.478C567.928 101.037 567.928 100.592 567.881 100.15C567.606 95.0682 566.909 90.0177 565.797 85.051C565.797 75.0802 567.594 69.431 571.292 68.1554C575.666 66.5413 580.276 71.7219 580.848 72.3728C583.337 76.2403 584.532 80.7987 584.26 85.3894C584.26 98.8747 577.672 114.989 577.307 115.796C577.307 115.796 576.63 117.853 576.552 118.061C564.99 141.491 562.751 160.912 562.751 172.08C562.682 175.648 562.961 179.214 563.584 182.728C564.678 188.143 567.62 197.229 571.005 198.687L571.969 199.051L572.203 221.882L572.776 281.394C571.708 303.21 568.896 354.288 565.459 357.776C561.093 362.1 557.523 367.158 554.913 372.719C561.084 373.943 569.365 374.75 571.344 372.719C571.969 372.069 571.109 368.736 570.615 366.94C569.781 363.712 568.974 360.614 570.615 358.922L573.531 357.256C576.135 356.214 578.739 355.095 579 348.456L579.182 343.51C579.625 329.921 581.031 288.58 581.031 282.566L581.525 229.666C581.525 229.172 581.786 176.376 643.891 174.345H660.01C679.905 175.491 691.961 182.338 703.471 189.809L701.934 192.412C689.583 186.419 676.425 182.253 662.874 180.047C682.717 197.853 689.644 221.283 689.644 244.713C689.644 278.036 675.973 311.619 667.145 329.738V329.999L666.963 330.181C662.645 334.13 659.515 339.206 657.927 344.838C662.241 345.446 666.612 345.534 670.947 345.098C672.067 343.979 671.311 341.089 670.765 338.72C670.218 336.351 669.567 333.773 670.947 332.394L672.04 331.3L673.134 332.394C673.322 332.59 673.569 332.718 673.837 332.758C676.91 325.443 697.534 256.611 697.716 252.68C697.716 249.582 702.924 203.607 708.601 195.927L709.382 194.912L710.528 195.458C726.516 203.268 736.359 222.012 736.359 239.403C736.359 262.156 733.078 314.066 732.583 321.173C731.507 329.75 729.907 338.253 727.792 346.634C727.432 347.692 727.23 348.797 727.193 349.914C727.195 350.567 727.327 351.214 727.584 351.815C727.862 352.383 728.013 353.004 728.026 353.637C728.026 355.329 726.698 357.386 722.818 362.176C719.403 365.987 717.027 370.613 715.918 375.609C718.27 375.723 720.628 375.679 722.975 375.479H726.516C728.573 375.635 730.578 375.739 731.308 374.88C732.037 374.021 732.193 372.98 731.542 369.673C730.058 362.202 731.542 359.781 734.146 357.203C735.116 356.251 735.879 355.107 736.385 353.845C738.286 348.847 738.781 312.192 738.781 307.402L739.562 297.874C743.703 252.003 744.458 227.584 741.88 224.98C740.734 224.277 739.146 222.377 736.932 213.187V212.64C741.203 168.982 733.417 155.836 728.339 151.853L728 151.566L727.844 151.202C727.572 150.527 727.457 149.799 727.506 149.073C727.556 148.347 727.769 147.642 728.131 147.01C730.943 141.804 739.692 144.719 744.328 148.703C755.785 158.829 757.66 193.636 756.098 209.048C755.664 213.373 755.456 217.718 755.473 222.064C755.473 254.866 765.628 293.161 769.717 305.371C772.321 312.895 774.716 319.351 776.253 323.334" fill="#1A1A18"/>
<path d="M562.177 197.854C560.857 194.883 559.979 191.734 559.573 188.508C552.777 192.855 530.695 207.018 530.695 207.07L525.982 209.673C524.717 210.168 523.639 211.047 522.901 212.186C522.163 213.326 521.801 214.669 521.868 216.025C521.989 218.624 522.48 221.192 523.326 223.653C533.299 257.965 538.455 277.776 538.585 282.905C541.128 288.617 544.393 293.98 548.298 298.863C551.084 294.177 554.391 287.539 554.391 284.206V283.764C554.157 282.722 550.668 282.332 549.001 282.124C546.632 281.837 544.939 281.655 544.392 280.275L543.923 279.703L545.72 277.099C546.151 276.583 546.472 275.984 546.664 275.34C546.857 274.695 546.917 274.019 546.84 273.35C546.739 271.257 546.308 269.192 545.564 267.233L539.028 249.504C539.028 249.504 528.091 219.982 528.039 219.8C527.987 219.618 528.039 219.54 528.039 219.383C528.039 218.056 529.862 215.062 549.574 204.284L554.782 201.681L562.177 197.854Z" fill="#1A1A18"/>
<path d="M878.59 686.186L849.946 717.66V746.662H842.941V717.322L812.396 686.082H821.901L845.805 710.944L869.085 686.082L878.59 686.186ZM765.576 746.662H719.459V686.186H726.23V739.997H765.576V746.662ZM643.188 723.726L626.106 691.523L608.841 723.726H643.188ZM664.02 746.766H656.208L647.329 730.339H605.248L596.915 746.74H588.843L620.586 686.264H632.095L664.02 746.766ZM544.809 692.929H519.733V746.766H512.962V692.825H488.224V686.186H544.809V692.929ZM430.233 746.766H423.411V686.186H430.311L430.233 746.766Z" fill="#1A1A18"/>
<path d="M175.952 632.376C197.857 632.306 219.513 627.724 239.568 618.917V595.018C220.34 607.475 197.901 614.069 174.989 613.996C119.237 613.996 73.8754 575.805 73.8754 528.919C73.8754 482.033 119.497 443.296 175.666 443.296C198.231 443.138 220.382 449.355 239.568 461.233V437.803C220.486 428.963 199.664 424.515 178.634 424.786C105.019 424.786 47.3667 470.839 47.3667 529.622C47.3667 586.167 105.071 632.246 176.004 632.246" fill="#1A1A18"/>
<path d="M459.762 576.977L488.406 628.055H516.504C512.65 621.208 404.532 430.201 400.626 423.12C396.641 430.201 288.654 621.208 284.748 628.055H312.819C314.173 625.738 341.463 576.977 341.463 576.977H459.762ZM398.412 472.662L400.547 468.731L449.32 558.624H351.879L398.412 472.662Z" fill="#1A1A18"/>
<path d="M707.168 453.787C682.534 437.724 648.63 429.237 609.101 429.237H559.625V628.054H608.034C675.608 628.054 747.712 601.656 747.712 527.591C747.712 496.612 733.703 471.073 707.168 453.787ZM599.389 609.674H585.9V447.617H599.31C677.873 447.617 721.152 476.384 721.152 528.659C721.152 580.934 677.951 609.674 599.389 609.674Z" fill="#1A1A18"/>
<path d="M839.165 429.237H812.683V628.054H839.165V429.237Z" fill="#1A1A18"/>
<path d="M1143.78 429.237H1117.25V582.47L928.561 422.312V627.976H955.043V473.442C955.043 473.442 1136.15 627.039 1143.78 633.651V429.237Z" fill="#1A1A18"/>
<path d="M1254.71 428.769H1228.2V627.611H1254.71V428.769Z" fill="#1A1A18"/>
</svg>
