<svg width="1208" height="325" viewBox="0 0 1208 325" fill="none" xmlns="http://www.w3.org/2000/svg">
<path d="M831.223 263.874L802.579 295.348V324.349H795.574V295.01L765.029 263.77H774.534L798.439 288.631L821.719 263.77L831.223 263.874ZM718.21 324.349H672.093V263.874H678.863V317.685H718.21V324.349ZM595.822 301.414L578.739 269.21L561.475 301.414H595.822ZM616.654 324.453H608.842L599.962 308.026H557.881L549.548 324.427H541.476L573.219 263.952H584.729L616.654 324.453ZM497.442 270.616H472.366V324.453H465.596V270.512H440.858V263.874H497.442V270.616ZM382.866 324.453H376.044V263.874H382.945L382.866 324.453Z" fill="white"/>
<path d="M128.586 210.063C150.49 209.993 172.146 205.412 192.201 196.604V172.706C172.973 185.162 150.534 191.757 127.622 191.684C71.8704 191.684 26.5087 153.493 26.5087 106.607C26.5087 59.7209 72.1308 20.9833 128.299 20.9833C150.865 20.8252 173.016 27.043 192.201 38.9203V15.4903C173.119 6.65043 152.297 2.20235 131.268 2.47362C57.6526 2.47362 0 48.5266 0 107.31C0 163.854 57.7046 209.933 128.638 209.933" fill="white"/>
<path d="M412.396 154.665L441.04 205.742H469.137C465.283 198.895 357.165 7.88868 353.259 0.807617C349.275 7.88868 241.287 198.895 237.381 205.742H265.452C266.806 203.425 294.096 154.665 294.096 154.665H412.396ZM351.045 50.349L353.181 46.418L401.954 136.311H304.512L351.045 50.349Z" fill="white"/>
<path d="M659.801 31.4742C635.168 15.4117 601.264 6.9248 561.735 6.9248H512.259V205.741H560.667C628.241 205.741 700.346 179.344 700.346 105.279C700.346 74.2991 686.336 48.7604 659.801 31.4742ZM552.022 187.362H538.533V25.3043H551.944C630.506 25.3043 673.785 54.0712 673.785 106.346C673.785 158.621 630.585 187.362 552.022 187.362Z" fill="white"/>
<path d="M791.799 6.9248H765.316V205.741H791.799V6.9248Z" fill="white"/>
<path d="M1096.41 6.92488H1069.88V160.157L881.194 0V205.663H907.677V51.1295C907.677 51.1295 1088.78 204.726 1096.41 211.339V6.92488Z" fill="white"/>
<path d="M1207.34 6.45605H1180.84V205.299H1207.34V6.45605Z" fill="white"/>
</svg>
